<svg width="599" height="124" viewBox="0 0 599 124" fill="none" xmlns="http://www.w3.org/2000/svg">
<g clip-path="url(#clip0)">
<path fill-rule="evenodd" clip-rule="evenodd" d="M564.49 85.9752V97.6451H551.404V23.6451H564.49V68.4948H564.686L583.117 47.6451H598.17L580.213 68.2506L598.111 97.6451H583.143L571.522 78.2115H571.375L564.49 85.9752ZM307.715 41.9323C309.929 41.9323 311.833 41.151 313.428 39.5885C315.023 38.026 315.82 36.138 315.82 33.9244C315.82 31.7434 315.023 29.8717 313.428 28.3092C311.833 26.7467 309.929 25.9655 307.715 25.9655C305.469 25.9655 303.556 26.7467 301.978 28.3092C300.399 29.8717 299.609 31.7434 299.609 33.9244C299.609 35.3893 299.968 36.7321 300.684 37.9528C301.4 39.1735 302.385 40.1419 303.638 40.858C304.891 41.5742 306.25 41.9323 307.715 41.9323ZM314.258 97.6451V47.817H301.172V97.6451H314.258ZM474.543 95.3258C470.604 97.4254 466.128 98.4752 461.115 98.4752C458.055 98.4752 455.175 98.0683 452.473 97.2545C449.771 96.4407 447.37 95.2851 445.271 93.7877C443.171 92.2903 441.356 90.5081 439.826 88.441C438.296 86.374 437.133 84.0546 436.335 81.483C435.538 78.9114 435.139 76.177 435.139 73.2799C435.139 69.6666 435.765 66.2975 437.019 63.1725C438.272 60.0475 440.022 57.3701 442.268 55.1403C444.514 52.9104 447.264 51.1608 450.52 49.8912C453.775 48.6217 457.307 47.9869 461.115 47.9869C464.859 47.9869 468.342 48.6054 471.565 49.8424C474.787 51.0794 477.538 52.7965 479.817 54.9938C482.095 57.191 483.877 59.8603 485.163 63.0016C486.449 66.1429 487.092 69.569 487.092 73.2799C487.092 78.1953 485.985 82.5735 483.772 86.4147C481.558 90.2558 478.482 93.2262 474.543 95.3258ZM461.115 86.7565C457.404 86.7565 454.353 85.4625 451.96 82.8746C449.568 80.2867 448.371 77.0885 448.371 73.2799C448.371 69.3737 449.551 66.1429 451.911 63.5875C454.271 61.0322 457.339 59.7545 461.115 59.7545C464.761 59.7545 467.789 61.0159 470.197 63.5387C472.606 66.0615 473.811 69.3086 473.811 73.2799C473.811 77.1862 472.59 80.4088 470.149 82.9479C467.707 85.4869 464.696 86.7565 461.115 86.7565ZM532.358 95.3258C528.419 97.4254 523.943 98.4752 518.93 98.4752C515.87 98.4752 512.989 98.0683 510.287 97.2545C507.585 96.4407 505.185 95.2851 503.085 93.7877C500.985 92.2903 499.171 90.5081 497.641 88.441C496.111 86.374 494.947 84.0546 494.15 81.483C493.352 78.9114 492.953 76.177 492.953 73.2799C492.953 69.6666 493.58 66.2975 494.833 63.1725C496.086 60.0475 497.836 57.3701 500.082 55.1403C502.328 52.9104 505.079 51.1608 508.334 49.8912C511.589 48.6217 515.121 47.9869 518.93 47.9869C522.673 47.9869 526.156 48.6054 529.379 49.8424C532.602 51.0794 535.352 52.7965 537.631 54.9938C539.91 57.191 541.692 59.8603 542.978 63.0016C544.263 66.1429 544.906 69.569 544.906 73.2799C544.906 78.1953 543.8 82.5735 541.586 86.4147C539.373 90.2558 536.296 93.2262 532.358 95.3258ZM518.93 86.7565C515.219 86.7565 512.167 85.4625 509.775 82.8746C507.382 80.2867 506.186 77.0885 506.186 73.2799C506.186 69.3737 507.366 66.1429 509.726 63.5875C512.086 61.0322 515.154 59.7545 518.93 59.7545C522.576 59.7545 525.603 61.0159 528.012 63.5387C530.421 66.0615 531.625 69.3086 531.625 73.2799C531.625 77.1862 530.404 80.4088 527.963 82.9479C525.522 85.4869 522.511 86.7565 518.93 86.7565Z" fill="#DB631A"/>
<path d="M334.385 23.5241H320.807V87.0431C320.807 94.3901 326.852 98.4821 333.827 98.4821C338.105 98.4821 340.151 97.7381 341.732 96.9941V85.8341C340.709 86.3921 339.779 86.7641 338.291 86.7641C335.966 86.7641 334.385 85.2761 334.385 82.7651V23.5241Z" fill="#DB631A"/>
<path d="M361.385 23.5241H347.807V87.0431C347.807 94.3901 353.852 98.4821 360.827 98.4821C365.105 98.4821 367.151 97.7381 368.732 96.9941V85.8341C367.709 86.3921 366.779 86.7641 365.291 86.7641C362.966 86.7641 361.385 85.2761 361.385 82.7651V23.5241Z" fill="#DB631A"/>
</g>
<path d="M47.8219 54.9577L37.285 95.1407C36.8662 96.738 35.2318 97.6933 33.6346 97.2744C33.128 97.1416 32.6651 96.878 32.2924 96.51L2.12775 66.7297C0.952739 65.5696 0.940602 63.6766 2.10065 62.5015C2.48223 62.1151 2.96182 61.8398 3.48797 61.7053L44.1895 51.3026C45.7893 50.8937 47.4177 51.8592 47.8266 53.459C47.9523 53.9508 47.9507 54.4666 47.8219 54.9577Z" fill="#FF9C60"/>
<path d="M74.7974 27.9875L58.7693 89.0229C58.3499 90.62 56.7152 91.5747 55.1181 91.1553C54.6119 91.0224 54.1494 90.7589 53.777 90.3911L7.98212 45.1798C6.8071 44.0197 6.79497 42.1266 7.95501 40.9515C8.33634 40.5654 8.81556 40.2902 9.34132 40.1557L71.1643 24.3317C72.764 23.9222 74.3927 24.8871 74.8021 26.4868C74.9282 26.9793 74.9266 27.4958 74.7974 27.9875Z" fill="#DB631A"/>
<path opacity="0.2" d="M41.768 78.57L20.4567 57.2587L44.1209 51.2743C45.7217 50.8694 47.3476 51.839 47.7525 53.4398C47.8741 53.9209 47.8741 54.4247 47.7525 54.9059L41.768 78.57Z" fill="black"/>
<path fill-rule="evenodd" clip-rule="evenodd" d="M269.807 97.6451C273.768 97.6451 277.28 97.1373 280.344 96.1217C283.408 95.1061 285.913 93.6842 287.86 91.8561C289.806 90.028 291.279 87.8782 292.277 85.4069C293.276 82.9355 293.776 80.2102 293.776 77.2311C293.776 72.3899 292.489 68.3528 289.916 65.1198C287.343 61.8867 283.687 59.6777 278.947 58.4928V58.2897C281.52 57.3079 283.653 55.9114 285.346 54.1002C287.039 52.289 288.24 50.3593 288.951 48.3112C289.662 46.263 290.018 44.0878 290.018 41.7858C290.018 35.929 287.961 31.4602 283.848 28.3795C279.735 25.2988 273.751 23.7584 265.897 23.7584H240.127V97.6451H269.807ZM264.068 54.024H253.608V36.7076H263.104C265.88 36.7076 268.182 37.0716 270.01 37.7994C271.838 38.5273 273.158 39.5175 273.971 40.7701C274.783 42.0227 275.19 43.5293 275.19 45.2897C275.19 47.2532 274.656 48.9036 273.59 50.2408C272.524 51.5781 271.178 52.5429 269.553 53.1354C267.928 53.7278 266.1 54.024 264.068 54.024ZM253.608 84.7975H265.389C268.029 84.7975 270.323 84.4505 272.27 83.7565C274.216 83.0625 275.748 82.013 276.865 80.608C277.983 79.2031 278.541 77.4681 278.541 75.403C278.541 72.4238 277.432 70.0794 275.215 68.3698C272.998 66.6601 269.773 65.8053 265.541 65.8053H253.608V84.7975Z" fill="#DB631A"/>
<path fill-rule="evenodd" clip-rule="evenodd" d="M404.807 97.6451C408.768 97.6451 412.28 97.1373 415.344 96.1217C418.408 95.1061 420.913 93.6842 422.859 91.8561C424.806 90.028 426.279 87.8782 427.277 85.4069C428.276 82.9355 428.776 80.2102 428.776 77.2311C428.776 72.3899 427.489 68.3528 424.916 65.1198C422.343 61.8867 418.687 59.6777 413.947 58.4928V58.2897C416.52 57.3079 418.653 55.9114 420.346 54.1002C422.039 52.289 423.24 50.3593 423.951 48.3112C424.662 46.263 425.018 44.0878 425.018 41.7858C425.018 35.929 422.961 31.4602 418.848 28.3795C414.734 25.2988 408.751 23.7584 400.897 23.7584H375.114V97.6451H404.807ZM399.068 54.024H388.608V36.7076H398.104C400.88 36.7076 403.182 37.0716 405.01 37.7994C406.838 38.5273 408.158 39.5175 408.971 40.7701C409.783 42.0227 410.19 43.5293 410.19 45.2897C410.19 47.2532 409.656 48.9036 408.59 50.2408C407.524 51.5781 406.178 52.5429 404.553 53.1354C402.928 53.7278 401.1 54.024 399.068 54.024ZM388.608 84.7975H400.389C403.029 84.7975 405.323 84.4505 407.27 83.7565C409.216 83.0625 410.748 82.013 411.865 80.608C412.983 79.2031 413.541 77.4681 413.541 75.403C413.541 72.4238 412.432 70.0794 410.215 68.3698C407.998 66.6601 404.773 65.8053 400.541 65.8053H388.608V84.7975Z" fill="#DB631A"/>
<g clip-path="url(#clip1)">
<path d="M203.544 123.645C219.566 123.645 228.706 116.969 228.706 100.537V47.6451H213.306V72.3662C213.306 78.4257 211.457 84.2073 205.706 84.2073C199.955 84.2073 198.003 78.9392 198.003 72.3662V47.6451H183.111V80.51C183.111 93.5532 190.927 97.5587 203.138 97.6614C209.198 97.7123 211.56 97.3747 214.333 94.3963V100.229C214.333 108.137 211.555 110.705 203.544 110.705C196.766 110.705 187.111 110.705 187.111 110.705V123.645C187.111 123.645 197.074 123.645 203.544 123.645Z" fill="#28313B"/>
</g>
<path d="M159.541 47.7916C152.559 47.7916 147.041 50.1354 143.037 54.8229H142.793C139.912 50.1354 135.225 47.7916 128.779 47.7916C126.24 47.7916 123.75 48.3776 121.406 49.4518C119.014 50.5748 116.914 52.1862 115.108 54.2369H114.863V48.7194H99.2384V97.6451H114.863V73.1334C114.863 69.4713 115.596 66.6393 117.158 64.6862C118.721 62.733 120.723 61.7565 123.262 61.7565C128.047 61.7565 130.44 65.4674 130.44 72.7916V97.6451H146.016V73.1334C146.016 69.5201 146.748 66.6881 148.311 64.735C149.824 62.7819 151.777 61.7565 154.17 61.7565C158.906 61.7565 161.299 65.4674 161.299 72.7916V97.6451H176.875V69.1295C176.875 65.3698 176.436 62.0983 175.606 59.3151C174.776 56.5807 173.604 54.3346 172.041 52.6744C170.479 51.0143 168.623 49.7936 166.572 49.0123C164.522 48.2311 162.178 47.7916 159.541 47.7916Z" fill="#28313B"/>
<defs>
<clipPath id="clip0">
<rect width="300" height="97" fill="white" transform="translate(298.867 23.0123)"/>
</clipPath>
<clipPath id="clip1">
<rect width="135" height="104" fill="white" transform="translate(94.1115 19.6451)"/>
</clipPath>
</defs>
</svg>
